<svg xmlns="http://www.w3.org/2000/svg" width="140" height="64" viewBox="0 0 140 64"><g fill="none" fill-rule="evenodd"><path fill="#00ADB1" d="M114.466667,0 C115.970386,0.692335463 117.342001,1.64133677 118.52,2.80444444 C119.853333,4.09333333 121.582222,6.89777778 122.337778,7.76888889 C122.337778,7.76888889 129.893333,1.31111111 129.893333,1.31111111 C133.133333,6.44 137.448889,5.98222222 137.448889,5.98222222 L130.026667,12.24 C131.595556,12.5022222 135.431111,11.7066667 139.244444,14.1511111 C139.244444,14.1511111 131.315556,20.8577778 131.297778,20.8444444 C127.48,18.2044444 122.973333,18.92 122.235556,18.8577778 C122.235556,18.8577778 115.88,24.1422222 115.88,24.1422222 C115.88,24.1422222 111.604444,25.9511111 107.373333,20.3288889 C107.373333,20.3288889 114.56,14.4 114.546667,14.3866667 C113.657778,13.5733333 111.644444,9.12 106.52,6.73777778 L114.466667,0 Z"></path><path fill="#004B87" d="M91.2933333,19.5422222 C98.2844444,19.5422222 103.635556,23.1466667 106.493333,29.0888889 L106.493333,29.0888889 L99.44,33.16 C97.92,29.9377778 95.6088889,27.6888889 91.2933333,27.6888889 C87.7688889,27.6888889 85.7022222,29.5155556 85.7022222,31.9466667 C85.7022222,34.56 87.3422222,35.96 93.7866667,37.9022222 C100.533333,40.0311111 107.706667,42.28 107.706667,50.9733333 C107.706667,58.9377778 101.324444,63.8044444 92.2666667,63.8044444 L92.2666667,63.8044444 L92.28,63.8266667 C83.5866667,63.8266667 77.8711111,59.6311111 75.56,53.3066667 L75.56,53.3066667 L82.7333333,49.1111111 C84.24,53.0666667 87.2177778,55.6177778 92.5111111,55.6177778 C97.5422222,55.6177778 99.32,53.4888889 99.32,51.12 C99.32,47.9377778 96.4622222,46.72 90.1377778,44.8977778 C83.6311111,43.0088889 77.3111111,40.2177778 77.3111111,32.1911111 C77.3111111,24.1644444 84,19.5422222 91.2933333,19.5422222 Z M47.3422222,20.3955556 L47.3422222,48.36 C47.3422222,52.4844444 49.5333333,55.5955556 55.2488889,55.5955556 C60.9644444,55.5955556 63.1511111,52.4933333 63.1511111,48.36 L63.1511111,48.36 L63.1511111,20.3955556 L71.5422222,20.3955556 L71.5422222,49.0311111 C71.5422222,58.2088889 64.6088889,63.8044444 55.2488889,63.8044444 C45.9466667,63.8044444 39.0133333,58.2088889 39.0133333,49.0311111 L39.0133333,49.0311111 L39.0133333,20.3955556 L47.3422222,20.3955556 Z M8.39111111,20.3911111 L8.39111111,37.2933333 L24.1955556,37.2933333 L24.1955556,20.3911111 L32.5244444,20.3911111 L32.5244444,62.9511111 L24.1955556,62.9511111 L24.1955556,45.32 L8.39111111,45.32 L8.39111111,62.9511111 L3.78956126e-14,62.9511111 L3.78956126e-14,20.3911111 L8.39111111,20.3911111 Z"></path></g></svg>